<svg width="71" height="15" viewBox="0 0 71 15" fill="none" xmlns="http://www.w3.org/2000/svg">
<path d="M12.6824 9.03516H10.1892C9.8114 11.2073 8.52702 12.4917 6.65711 12.4917C4.315 12.4917 2.91729 10.584 2.91729 7.39191C2.91729 4.19984 4.315 2.29215 6.65711 2.29215C8.50813 2.29215 9.8114 3.55765 10.1892 5.69199H12.6824C12.2291 2.25438 10.0003 0.214478 6.65711 0.214478C2.61508 0.214478 0.216309 2.87768 0.216309 7.39191C0.216309 11.9061 2.61508 14.5693 6.65711 14.5693C10.0003 14.5693 12.2291 12.4917 12.6824 9.03516Z" fill="black"/>
<path d="M17.845 12.2839V0.403358H15.2384V14.3805H23.9836V12.2839H17.845Z" fill="black"/>
<path d="M34.1843 9.58291C34.1843 11.415 33.0888 12.4917 31.2189 12.4917C29.3678 12.4917 28.2912 11.415 28.2912 9.58291V0.403358H25.6847V9.4507C25.6847 12.6617 27.7246 14.5693 31.1622 14.5693C34.5998 14.5693 36.6397 12.6617 36.6397 9.4507V0.403358H34.1843V9.58291Z" fill="black"/>
<path d="M44.8828 14.5693C48.4904 14.5693 50.6059 12.9072 50.6059 10.1118C50.6059 6.88193 47.7916 6.44751 45.4306 6.10753C43.6929 5.84309 42.1441 5.59755 42.1441 4.21873C42.1441 3.0099 43.1074 2.29215 44.7506 2.29215C46.4505 2.29215 47.5271 3.33099 47.6405 5.08758H50.2281C49.9637 2.02772 47.9616 0.214478 44.8828 0.214478C41.5019 0.214478 39.4998 1.68774 39.4998 4.40761C39.4998 7.50524 42.163 7.90188 44.4673 8.22298C46.2994 8.5063 47.9616 8.75184 47.9616 10.3762C47.9616 11.6984 46.8472 12.4917 44.9395 12.4917C43.0507 12.4917 41.8607 11.3773 41.6908 9.48847H39.122C39.3864 12.6994 41.5208 14.5693 44.8828 14.5693Z" fill="black"/>
<path d="M53.2623 14.3805H55.8688V0.403358H53.2623V14.3805Z" fill="black"/>
<path d="M67.971 0.403358L64.4201 14.1538H64.3823L60.8502 0.403358H58.0737L61.9835 14.3805H66.6488L70.5964 0.403358H67.971Z" fill="black"/>
</svg>
