<svg width="101" height="100" viewBox="0 0 101 100" fill="none" xmlns="http://www.w3.org/2000/svg">
<path d="M0.5 26.6667C0.5 11.9391 12.4283 0 27.1426 0H73.7672C88.4816 0 100.41 11.9391 100.41 26.6667V73.3333C100.41 88.0609 88.4816 100 73.7672 100H27.1426C12.4283 100 0.5 88.0609 0.5 73.3333V26.6667Z" fill="#75FC9F"/>
<path fill-rule="evenodd" clip-rule="evenodd" d="M31.6924 31.0788C30.8618 33.1501 30.4048 35.4117 30.4048 37.7802V52.4754C30.4048 62.4165 38.4564 70.4754 48.3885 70.4754H63.0705C65.1827 70.4754 67.2098 70.1109 69.0925 69.4414C66.4368 76.0638 59.9622 80.74 52.3964 80.74H37.7145C27.7823 80.74 19.7307 72.6811 19.7307 62.74V48.0449C19.7307 40.2178 24.7219 33.5576 31.6924 31.0788ZM31.6924 31.0788C34.3481 24.4565 40.8227 19.7802 48.3885 19.7802H63.0705C73.0026 19.7802 81.0542 27.8391 81.0542 37.7802V52.4754C81.0542 60.3024 76.063 66.9626 69.0925 69.4414C69.9232 67.3701 70.3802 65.1085 70.3802 62.74V48.0449C70.3802 38.1037 62.3286 30.0449 52.3964 30.0449H37.7145C35.6023 30.0449 33.5752 30.4093 31.6924 31.0788Z" fill="#1E1E1E"/>
</svg>
